<svg xmlns="http://www.w3.org/2000/svg" xmlns:xlink="http://www.w3.org/1999/xlink" preserveAspectRatio="xMidYMid" width="28" height="28" viewBox="0 0 28 28">
  <defs>
    <style>
      .cls-1 {
        fill: #43525b;
        fill-rule: evenodd;
      }
    </style>
  </defs>
  <path d="M27.665,16.209 L24.856,17.041 C24.563,17.128 24.338,17.357 24.239,17.646 C24.099,18.055 23.936,18.452 23.750,18.836 C23.617,19.111 23.614,19.429 23.759,19.698 L25.155,22.268 C25.353,22.632 25.287,23.083 24.994,23.376 L23.376,24.994 C23.083,25.287 22.632,25.353 22.268,25.155 L19.698,23.759 C19.429,23.614 19.111,23.617 18.836,23.750 C18.452,23.936 18.055,24.099 17.646,24.239 C17.356,24.339 17.128,24.563 17.041,24.856 L16.209,27.665 C16.091,28.062 15.726,28.335 15.312,28.335 L13.023,28.335 C12.609,28.335 12.243,28.062 12.126,27.665 L11.294,24.856 C11.207,24.563 10.978,24.339 10.688,24.239 C10.280,24.099 9.882,23.936 9.498,23.750 C9.223,23.617 8.905,23.614 8.637,23.760 L6.067,25.155 C5.702,25.353 5.251,25.287 4.958,24.994 L3.340,23.376 C3.047,23.083 2.982,22.632 3.180,22.268 L4.575,19.697 C4.721,19.429 4.718,19.111 4.584,18.836 C4.398,18.452 4.235,18.055 4.095,17.646 C3.996,17.357 3.772,17.128 3.478,17.041 L0.670,16.209 C0.273,16.091 -0.000,15.726 -0.000,15.311 L-0.000,13.023 C-0.000,12.609 0.273,12.244 0.670,12.126 L3.478,11.294 C3.772,11.207 3.996,10.978 4.095,10.689 C4.235,10.280 4.398,9.883 4.584,9.498 C4.718,9.224 4.721,8.906 4.575,8.637 L3.180,6.067 C2.982,5.703 3.047,5.252 3.340,4.959 L4.958,3.340 C5.251,3.047 5.702,2.982 6.067,3.180 L8.637,4.575 C8.906,4.721 9.224,4.718 9.498,4.584 C9.882,4.398 10.280,4.235 10.688,4.095 C10.978,3.996 11.207,3.772 11.294,3.478 L12.126,0.670 C12.243,0.273 12.609,-0.000 13.023,-0.000 L15.312,-0.000 C15.726,-0.000 16.091,0.273 16.209,0.670 L17.041,3.478 C17.128,3.772 17.356,3.996 17.646,4.095 C18.055,4.235 18.452,4.398 18.836,4.585 C19.111,4.718 19.429,4.721 19.697,4.575 L22.268,3.180 C22.632,2.982 23.083,3.047 23.376,3.340 L24.994,4.958 C25.287,5.252 25.353,5.703 25.155,6.067 L23.759,8.637 C23.614,8.906 23.617,9.224 23.750,9.498 C23.936,9.883 24.099,10.280 24.239,10.688 C24.338,10.978 24.563,11.207 24.856,11.294 L27.665,12.126 C28.062,12.244 28.335,12.609 28.335,13.023 L28.335,15.312 C28.335,15.726 28.062,16.091 27.665,16.209 ZM14.168,5.847 C9.581,5.847 5.848,9.580 5.848,14.167 C5.848,18.754 9.581,22.486 14.168,22.486 C18.755,22.486 22.487,18.754 22.487,14.167 C22.487,9.580 18.755,5.847 14.168,5.847 ZM14.168,19.367 C11.301,19.367 8.969,17.035 8.969,14.167 C8.969,11.300 11.301,8.968 14.168,8.968 C17.035,8.968 19.368,11.300 19.368,14.167 C19.368,17.035 17.035,19.367 14.168,19.367 ZM14.168,10.527 C12.161,10.527 10.528,12.161 10.528,14.167 C10.528,16.174 12.161,17.807 14.168,17.807 C16.174,17.807 17.808,16.174 17.808,14.167 C17.808,12.161 16.174,10.527 14.168,10.527 Z" class="cls-1"/>
</svg>
