<svg xmlns="http://www.w3.org/2000/svg" xmlns:xlink="http://www.w3.org/1999/xlink" preserveAspectRatio="xMidYMid" width="28" height="28" viewBox="0 0 28 28">
  <defs>
    <style>
      .cls-1 {
        fill: #43525b;
        fill-rule: evenodd;
      }
    </style>
  </defs>
  <path d="M22.672,28.302 L5.340,28.302 C4.048,28.302 3.002,27.256 3.002,25.967 L3.002,4.671 C3.002,3.381 4.048,2.336 5.340,2.336 L7.842,2.336 L9.768,0.205 C9.886,0.075 10.054,-0.000 10.230,-0.000 L17.782,-0.000 C17.959,-0.000 18.127,0.075 18.245,0.205 L20.170,2.336 L22.672,2.336 C23.964,2.336 25.010,3.381 25.010,4.671 L25.010,25.967 C25.010,27.256 23.964,28.302 22.672,28.302 ZM22.654,7.228 L22.654,4.671 L19.537,4.671 L8.476,4.671 L5.358,4.671 L5.358,7.228 L5.358,25.948 L22.654,25.948 L22.654,7.228 ZM19.537,10.745 L8.476,10.745 L8.476,9.204 L19.537,9.204 L19.537,10.745 ZM19.537,14.776 L8.476,14.776 L8.476,13.236 L19.537,13.236 L19.537,14.776 ZM19.537,18.808 L8.476,18.808 L8.476,17.267 L19.537,17.267 L19.537,18.808 ZM16.419,22.840 L8.476,22.840 L8.476,21.299 L16.419,21.299 L16.419,22.840 Z" class="cls-1"/>
</svg>
