<svg xmlns="http://www.w3.org/2000/svg" xmlns:xlink="http://www.w3.org/1999/xlink" preserveAspectRatio="xMidYMid" width="28" height="28" viewBox="0 0 28 28">
  <defs>
    <style>
      .cls-1 {
        fill: #43525b;
        fill-rule: evenodd;
      }
    </style>
  </defs>
  <path d="M14.095,-0.253 C6.287,-0.253 -0.042,6.077 -0.042,13.884 C-0.042,21.692 6.287,28.022 14.095,28.022 C21.903,28.022 28.232,21.692 28.232,13.884 C28.232,6.077 21.903,-0.253 14.095,-0.253 ZM2.530,13.884 C2.530,7.497 7.708,2.320 14.095,2.320 C14.266,2.320 14.433,2.338 14.603,2.345 L14.603,8.370 L10.559,8.370 L10.559,19.399 L14.603,19.399 L14.603,25.424 C14.433,25.431 14.266,25.449 14.095,25.449 C7.708,25.449 2.530,20.272 2.530,13.884 ZM16.277,25.237 L16.277,17.724 L12.233,17.724 L12.233,10.045 L16.277,10.045 L16.277,2.532 C21.620,3.553 25.660,8.244 25.660,13.884 C25.660,19.525 21.620,24.216 16.277,25.237 Z" class="cls-1"/>
</svg>
