<svg xmlns="http://www.w3.org/2000/svg" xmlns:xlink="http://www.w3.org/1999/xlink" preserveAspectRatio="xMidYMid" width="28" height="28" viewBox="0 0 28 28">
  <defs>
    <style>
      .cls-1 {
        fill: #43525b;
        fill-rule: evenodd;
      }
    </style>
  </defs>
  <path d="M16.105,-0.000 L5.341,-0.000 C4.049,-0.000 3.002,1.046 3.002,2.337 L3.002,25.979 C3.002,27.270 4.049,28.316 5.341,28.316 L22.682,28.316 C23.974,28.316 25.021,27.270 25.021,25.979 L25.021,8.905 C25.021,8.285 24.775,7.691 24.336,7.253 L17.760,0.684 C17.321,0.246 16.726,-0.000 16.105,-0.000 ZM16.131,2.389 L22.614,8.864 L16.131,8.864 L16.131,2.389 ZM5.359,25.961 L5.359,2.355 L14.588,2.355 L14.588,10.405 L22.664,10.405 L22.664,25.961 L5.359,25.961 Z" class="cls-1"/>
</svg>
