<svg xmlns="http://www.w3.org/2000/svg" xmlns:xlink="http://www.w3.org/1999/xlink" preserveAspectRatio="xMidYMid" width="29.036" height="27.999" viewBox="0 0 28 27">
  <defs>
    <style>
      .cls-1 {
        fill: #43525b;
        fill-rule: evenodd;
      }
    </style>
  </defs>
  <path d="M27.627,13.965 L14.808,0.357 C14.353,-0.126 13.615,-0.126 13.160,0.357 L0.341,13.965 C-0.114,14.448 -0.114,15.231 0.341,15.714 C0.796,16.197 1.533,16.197 1.988,15.714 L3.641,13.959 L3.641,25.512 C3.641,26.878 4.684,27.985 5.971,27.985 L21.997,27.985 C23.283,27.985 24.326,26.878 24.326,25.512 L24.326,13.959 L25.980,15.714 C26.434,16.197 27.172,16.197 27.627,15.714 C28.082,15.231 28.082,14.448 27.627,13.965 ZM21.979,25.493 L16.927,25.493 L16.927,19.425 C16.927,19.061 16.648,18.765 16.305,18.765 L11.662,18.765 C11.319,18.765 11.041,19.061 11.041,19.425 L11.041,25.493 L5.989,25.493 L5.989,11.467 L13.984,2.980 L21.979,11.467 L21.979,25.493 Z" class="cls-1"/>
</svg>
