<svg xmlns="http://www.w3.org/2000/svg" xmlns:xlink="http://www.w3.org/1999/xlink" preserveAspectRatio="xMidYMid" width="22" height="28" viewBox="0 0 22 28">
  <defs>
    <style>
      .cls-1 {
        fill: #43525b;
        fill-rule: evenodd;
      }
    </style>
  </defs>
  <path d="M19.672,28.302 L2.340,28.302 C1.048,28.302 0.002,27.256 0.002,25.967 L0.002,4.671 C0.002,3.381 1.048,2.336 2.340,2.336 L4.842,2.336 L6.768,0.205 C6.886,0.075 7.054,-0.000 7.230,-0.000 L14.782,-0.000 C14.959,-0.000 15.127,0.075 15.245,0.205 L17.170,2.336 L19.672,2.336 C20.964,2.336 22.010,3.381 22.010,4.671 L22.010,25.967 C22.010,27.256 20.964,28.302 19.672,28.302 ZM19.654,7.228 L19.654,4.671 L16.537,4.671 L5.476,4.671 L2.358,4.671 L2.358,7.228 L2.358,25.948 L19.654,25.948 L19.654,7.228 ZM16.537,10.745 L5.476,10.745 L5.476,9.204 L16.537,9.204 L16.537,10.745 ZM16.537,14.776 L5.476,14.776 L5.476,13.236 L16.537,13.236 L16.537,14.776 ZM16.537,18.808 L5.476,18.808 L5.476,17.267 L16.537,17.267 L16.537,18.808 ZM13.419,22.840 L5.476,22.840 L5.476,21.299 L13.419,21.299 L13.419,22.840 Z" class="cls-1"/>
</svg>
