<svg xmlns="http://www.w3.org/2000/svg" xmlns:xlink="http://www.w3.org/1999/xlink" preserveAspectRatio="xMidYMid" width="28" height="28" viewBox="0 0 28 28">
  <defs>
    <style>
      .cls-1 {
        fill: #43525b;
        fill-rule: evenodd;
      }
    </style>
  </defs>
  <path d="M27.784,25.255 L0.626,25.255 C0.280,25.255 -0.000,24.975 -0.000,24.630 L-0.000,0.624 C-0.000,0.279 0.280,-0.001 0.626,-0.001 L1.739,-0.001 C2.084,-0.001 2.364,0.279 2.364,0.624 L2.364,22.893 L27.784,22.893 C28.130,22.893 28.410,23.173 28.410,23.518 L28.410,24.630 C28.410,24.975 28.130,25.255 27.784,25.255 ZM22.349,4.309 C22.349,3.964 22.629,3.684 22.975,3.684 L27.025,3.684 C27.370,3.684 27.650,3.964 27.650,4.309 L27.650,19.769 L22.349,19.769 L22.349,4.309 ZM13.921,7.433 C13.921,7.088 14.201,6.809 14.546,6.809 L18.596,6.809 C18.942,6.809 19.222,7.088 19.222,7.433 L19.222,19.769 L13.921,19.769 L13.921,7.433 ZM5.492,10.558 C5.492,10.213 5.772,9.933 6.118,9.933 L10.167,9.933 C10.513,9.933 10.793,10.213 10.793,10.558 L10.793,19.769 L5.492,19.769 L5.492,10.558 Z" class="cls-1"/>
</svg>
