<svg xmlns="http://www.w3.org/2000/svg" xmlns:xlink="http://www.w3.org/1999/xlink" preserveAspectRatio="xMidYMid" width="34" height="34" viewBox="0 0 34 34">
  <defs>
    <style>
      .cls-1 {
        fill: #43525b;
        fill-rule: evenodd;
      }
    </style>
  </defs>
  <path d="M17.095,2.747 C9.287,2.747 2.958,9.077 2.958,16.884 C2.958,24.692 9.287,31.022 17.095,31.022 C24.903,31.022 31.232,24.692 31.232,16.884 C31.232,9.077 24.903,2.747 17.095,2.747 ZM5.530,16.884 C5.530,10.497 10.708,5.320 17.095,5.320 C17.266,5.320 17.433,5.338 17.603,5.345 L17.603,11.370 L13.559,11.370 L13.559,22.399 L17.603,22.399 L17.603,28.424 C17.433,28.431 17.266,28.449 17.095,28.449 C10.708,28.449 5.530,23.272 5.530,16.884 ZM19.277,28.237 L19.277,20.724 L15.233,20.724 L15.233,13.045 L19.277,13.045 L19.277,5.532 C24.620,6.553 28.660,11.244 28.660,16.884 C28.660,22.525 24.620,27.216 19.277,28.237 Z" class="cls-1"/>
</svg>
