<svg xmlns="http://www.w3.org/2000/svg" xmlns:xlink="http://www.w3.org/1999/xlink" preserveAspectRatio="xMidYMid" width="28" height="28" viewBox="0 0 28 28">
  <defs>
    <style>
      .cls-1 {
        fill: #43525b;
        fill-rule: evenodd;
      }
    </style>
  </defs>
  <path d="M14.143,28.242 C6.343,28.242 0.020,21.919 0.020,14.119 C0.020,6.320 6.343,-0.003 14.143,-0.003 C21.943,-0.003 28.266,6.320 28.266,14.119 C28.266,21.919 21.943,28.242 14.143,28.242 ZM14.142,25.672 C17.632,25.672 20.758,24.111 22.878,21.658 L5.408,21.658 C7.528,24.111 10.653,25.672 14.142,25.672 ZM14.142,2.566 C7.772,2.566 2.589,7.749 2.589,14.119 C2.589,16.262 3.186,18.264 4.207,19.985 L24.079,19.985 C25.100,18.264 25.697,16.262 25.697,14.119 C25.697,7.749 20.513,2.566 14.142,2.566 ZM16.097,12.408 C16.813,13.225 16.976,14.431 16.402,15.424 C15.682,16.671 14.086,17.099 12.839,16.379 C11.591,15.658 11.163,14.063 11.884,12.815 C12.457,11.822 13.583,11.360 14.648,11.571 L17.184,7.180 C17.414,6.780 17.926,6.643 18.326,6.874 C18.726,7.105 18.863,7.617 18.632,8.017 L16.097,12.408 Z" class="cls-1"/>
</svg>
