<svg xmlns="http://www.w3.org/2000/svg" xmlns:xlink="http://www.w3.org/1999/xlink" preserveAspectRatio="xMidYMid" width="28" height="28" viewBox="0 0 28 28">
  <defs>
    <style>
      .cls-1 {
        fill: #43525b;
        fill-rule: evenodd;
      }
    </style>
  </defs>
  <path d="M13.105,-0.000 L2.341,-0.000 C1.049,-0.000 0.002,1.046 0.002,2.337 L0.002,25.979 C0.002,27.270 1.049,28.316 2.341,28.316 L19.682,28.316 C20.974,28.316 22.021,27.270 22.021,25.979 L22.021,8.905 C22.021,8.285 21.775,7.691 21.336,7.253 L14.760,0.684 C14.321,0.246 13.726,-0.000 13.105,-0.000 ZM13.131,2.389 L19.614,8.864 L13.131,8.864 L13.131,2.389 ZM2.359,25.961 L2.359,2.355 L11.588,2.355 L11.588,10.405 L19.664,10.405 L19.664,25.961 L2.359,25.961 Z" class="cls-1"/>
</svg>
