<svg id="Layer_1" data-name="Layer 1" xmlns="http://www.w3.org/2000/svg" viewBox="0 0 249.83 57.73"><defs><style>.cls-1{fill:#ff4612;}.cls-2{fill:#cad7eb;}.cls-3{fill:#b3c9e9;}.cls-4{fill:#7da4dd;}.cls-5{fill:#003056;}</style></defs><title>logo-ideagen-corp</title><path id="_Path_" data-name="&lt;Path&gt;" class="cls-1" d="M489.55,871.9a23.06,23.06,0,0,0-19.27,22.18l8.89-1.34a14.38,14.38,0,0,1,2.36-6.16A44.19,44.19,0,0,1,489.55,871.9Z" transform="translate(-470.28 -870.82)"/><path id="_Path_2" data-name="&lt;Path&gt;" class="cls-2" d="M500.8,882.35a49.63,49.63,0,0,1,10.79-2,22.76,22.76,0,0,0-19.1-8.78A37.43,37.43,0,0,0,485,883,14.44,14.44,0,0,1,500.8,882.35Z" transform="translate(-470.28 -870.82)"/><path id="_Path_3" data-name="&lt;Path&gt;" class="cls-3" d="M506.85,899.9a63,63,0,0,1,7.64,4.44,23.26,23.26,0,0,0-1.55-22.08,49.42,49.42,0,0,0-10.09,1.57c0.23,0.2.46,0.39,0.67,0.6A14.42,14.42,0,0,1,506.85,899.9Z" transform="translate(-470.28 -870.82)"/><path id="_Path_4" data-name="&lt;Path&gt;" class="cls-4" d="M506,901.69a14.22,14.22,0,0,1-10.46,7.24l-1.17,8.9a23.12,23.12,0,0,0,19.21-11.74A61.46,61.46,0,0,0,506,901.69Z" transform="translate(-470.28 -870.82)"/><circle id="_Path_5" data-name="&lt;Path&gt;" class="cls-5" cx="23.15" cy="23.18" r="8.28"/><path class="cls-5" d="M529,875.94a4.19,4.19,0,0,1,1.28-3.15,5.52,5.52,0,0,1,7,0,4.49,4.49,0,0,1,0,6.33,5.46,5.46,0,0,1-6.92,0A4.18,4.18,0,0,1,529,875.94Zm9,40.08h-8.53V884.18h8.53V916Z" transform="translate(-470.28 -870.82)"/><path class="cls-5" d="M540.73,899.87q0-7.44,3.34-11.86a10.84,10.84,0,0,1,9.14-4.41,9.75,9.75,0,0,1,7.68,3.47V870.82h8.53V916h-7.68l-0.41-3.38a10,10,0,0,1-8.18,4,10.81,10.81,0,0,1-9-4.43Q540.73,907.76,540.73,899.87Zm8.5,0.61a12.64,12.64,0,0,0,1.56,6.89,5.08,5.08,0,0,0,4.53,2.39,5.69,5.69,0,0,0,5.56-3.34V893.79a5.61,5.61,0,0,0-5.5-3.34Q549.23,890.45,549.23,900.47Z" transform="translate(-470.28 -870.82)"/><path class="cls-5" d="M587.65,916.61a15.63,15.63,0,0,1-11.4-4.3q-4.4-4.29-4.4-11.45V900a19.24,19.24,0,0,1,1.85-8.58,13.61,13.61,0,0,1,5.25-5.83,14.75,14.75,0,0,1,7.75-2q6.53,0,10.29,4.12t3.75,11.68v3.47H580.47a7.9,7.9,0,0,0,2.49,5,7.52,7.52,0,0,0,5.25,1.88,9.18,9.18,0,0,0,7.68-3.56l4.18,4.68a12.78,12.78,0,0,1-5.18,4.22A17,17,0,0,1,587.65,916.61Zm-1-26.16a5.31,5.31,0,0,0-4.1,1.71,8.88,8.88,0,0,0-2,4.91h11.83v-0.68a6.33,6.33,0,0,0-1.53-4.39A5.48,5.48,0,0,0,586.68,890.45Z" transform="translate(-470.28 -870.82)"/><path class="cls-5" d="M621,916a9.44,9.44,0,0,1-.85-2.85,10.29,10.29,0,0,1-8,3.44,11.3,11.3,0,0,1-7.75-2.71,8.7,8.7,0,0,1-3.08-6.83,9,9,0,0,1,3.75-7.77q3.75-2.71,10.84-2.74h3.91v-1.82a5.25,5.25,0,0,0-1.13-3.53,4.46,4.46,0,0,0-3.58-1.32,5.07,5.07,0,0,0-3.37,1,3.5,3.5,0,0,0-1.22,2.83H602a8.54,8.54,0,0,1,1.71-5.12,11.28,11.28,0,0,1,4.83-3.69,17.59,17.59,0,0,1,7-1.34q5.89,0,9.34,3a10.35,10.35,0,0,1,3.46,8.31v13.8a15.22,15.22,0,0,0,1.27,6.86V916H621Zm-7-5.92a7.33,7.33,0,0,0,3.47-.84A5.5,5.5,0,0,0,619.8,907v-5.47h-3.18q-6.39,0-6.8,4.41l0,0.5a3.41,3.41,0,0,0,1.12,2.62A4.34,4.34,0,0,0,614,910.11Z" transform="translate(-470.28 -870.82)"/><path class="cls-5" d="M630.62,899.87q0-7.33,3.49-11.8a11.3,11.3,0,0,1,9.4-4.47,9.91,9.91,0,0,1,8.15,3.59l0.35-3h7.71V915a13.62,13.62,0,0,1-1.9,7.27,12.2,12.2,0,0,1-5.34,4.71,18.78,18.78,0,0,1-8.06,1.62,17.46,17.46,0,0,1-6.83-1.4,12.11,12.11,0,0,1-5-3.6l3.77-5.18a10,10,0,0,0,7.71,3.56,7.29,7.29,0,0,0,5.27-1.81,6.79,6.79,0,0,0,1.88-5.13v-1.71a9.84,9.84,0,0,1-7.74,3.33,11.27,11.27,0,0,1-9.28-4.49q-3.55-4.49-3.55-11.9v-0.35Zm8.5,0.61a11.68,11.68,0,0,0,1.74,6.81,5.52,5.52,0,0,0,4.77,2.47,5.9,5.9,0,0,0,5.56-2.93V893.38a5.89,5.89,0,0,0-5.5-2.93,5.55,5.55,0,0,0-4.81,2.51Q639.12,895.48,639.12,900.47Z" transform="translate(-470.28 -870.82)"/><path class="cls-5" d="M677.9,916.61a15.63,15.63,0,0,1-11.4-4.3q-4.4-4.29-4.4-11.45V900a19.23,19.23,0,0,1,1.85-8.58,13.6,13.6,0,0,1,5.25-5.83,14.74,14.74,0,0,1,7.75-2q6.53,0,10.28,4.12T691,899.4v3.47H670.71a7.89,7.89,0,0,0,2.49,5,7.51,7.51,0,0,0,5.25,1.88,9.18,9.18,0,0,0,7.68-3.56l4.18,4.68a12.77,12.77,0,0,1-5.18,4.22A17,17,0,0,1,677.9,916.61Zm-1-26.16a5.31,5.31,0,0,0-4.1,1.71,8.88,8.88,0,0,0-2,4.91h11.83v-0.68A6.33,6.33,0,0,0,681.1,892,5.48,5.48,0,0,0,676.92,890.45Z" transform="translate(-470.28 -870.82)"/><path class="cls-5" d="M700.63,884.18l0.26,3.68A11.12,11.12,0,0,1,710,883.6q5.06,0,7.53,3t2.53,8.89V916h-8.5V895.61a5.54,5.54,0,0,0-1.18-3.94,5.26,5.26,0,0,0-3.91-1.22,5.85,5.85,0,0,0-5.39,3.07V916h-8.5V884.18h8Z" transform="translate(-470.28 -870.82)"/></svg>