<svg xmlns="http://www.w3.org/2000/svg" xmlns:xlink="http://www.w3.org/1999/xlink" preserveAspectRatio="xMidYMid" width="28" height="28" viewBox="0 0 28 28">
  <defs>
    <style>
      .cls-1 {
        fill: #43525b;
        fill-rule: evenodd;
      }
    </style>
  </defs>
  <path d="M27.698,15.802 L15.842,27.658 C14.950,28.550 13.505,28.550 12.613,27.658 L0.757,15.802 C-0.135,14.910 -0.135,13.465 0.757,12.574 L12.613,0.717 C13.505,-0.174 14.950,-0.174 15.842,0.717 L27.698,12.574 C28.590,13.465 28.590,14.910 27.698,15.802 ZM14.278,2.381 L2.421,14.138 L14.227,25.944 L26.033,14.237 L14.278,2.381 ZM12.827,19.821 C12.827,19.048 13.454,18.420 14.227,18.420 C15.001,18.420 15.628,19.048 15.628,19.821 C15.628,20.595 15.001,21.222 14.227,21.222 C13.454,21.222 12.827,20.595 12.827,19.821 ZM14.227,16.552 C13.583,16.552 13.060,16.030 13.060,15.385 L13.060,8.321 C13.060,7.676 13.583,7.153 14.227,7.153 C14.872,7.153 15.395,7.676 15.395,8.321 L15.395,15.385 C15.395,16.030 14.872,16.552 14.227,16.552 Z" class="cls-1"/>
</svg>
