<svg xmlns="http://www.w3.org/2000/svg" xmlns:xlink="http://www.w3.org/1999/xlink" preserveAspectRatio="xMidYMid" width="28" height="28" viewBox="0 0 28 28">
  <defs>
    <style>
      .cls-1 {
        fill: #43525b;
        fill-rule: evenodd;
      }
    </style>
  </defs>
  <path d="M27.524,28.271 L22.028,28.271 C21.622,28.271 21.293,27.942 21.293,27.536 L21.293,22.040 C21.293,21.634 21.622,21.304 22.028,21.304 L27.524,21.304 C27.930,21.304 28.259,21.634 28.259,22.040 L28.259,27.536 C28.259,27.942 27.930,28.271 27.524,28.271 ZM27.524,17.628 L22.028,17.628 C21.622,17.628 21.293,17.299 21.293,16.892 L21.293,11.397 C21.293,10.990 21.622,10.661 22.028,10.661 L27.524,10.661 C27.930,10.661 28.259,10.990 28.259,11.397 L28.259,16.892 C28.259,17.299 27.930,17.628 27.524,17.628 ZM27.524,6.984 L22.028,6.984 C21.622,6.984 21.293,6.655 21.293,6.249 L21.293,0.753 C21.293,0.347 21.622,0.018 22.028,0.018 L27.524,0.018 C27.930,0.018 28.259,0.347 28.259,0.753 L28.259,6.249 C28.259,6.655 27.930,6.984 27.524,6.984 ZM16.881,28.271 L11.385,28.271 C10.979,28.271 10.650,27.942 10.650,27.536 L10.650,22.040 C10.650,21.634 10.979,21.304 11.385,21.304 L16.881,21.304 C17.287,21.304 17.616,21.634 17.616,22.040 L17.616,27.536 C17.616,27.942 17.287,28.271 16.881,28.271 ZM16.881,17.628 L11.385,17.628 C10.979,17.628 10.650,17.299 10.650,16.892 L10.650,11.397 C10.650,10.990 10.979,10.661 11.385,10.661 L16.881,10.661 C17.287,10.661 17.616,10.990 17.616,11.397 L17.616,16.892 C17.616,17.299 17.287,17.628 16.881,17.628 ZM16.881,6.984 L11.385,6.984 C10.979,6.984 10.650,6.655 10.650,6.249 L10.650,0.753 C10.650,0.347 10.979,0.018 11.385,0.018 L16.881,0.018 C17.287,0.018 17.616,0.347 17.616,0.753 L17.616,6.249 C17.616,6.655 17.287,6.984 16.881,6.984 ZM6.237,28.271 L0.742,28.271 C0.335,28.271 0.006,27.942 0.006,27.536 L0.006,22.040 C0.006,21.634 0.335,21.304 0.742,21.304 L6.237,21.304 C6.644,21.304 6.973,21.634 6.973,22.040 L6.973,27.536 C6.973,27.942 6.644,28.271 6.237,28.271 ZM6.237,17.628 L0.742,17.628 C0.335,17.628 0.006,17.299 0.006,16.892 L0.006,11.397 C0.006,10.990 0.335,10.661 0.742,10.661 L6.237,10.661 C6.644,10.661 6.973,10.990 6.973,11.397 L6.973,16.892 C6.973,17.299 6.644,17.628 6.237,17.628 ZM6.237,6.984 L0.742,6.984 C0.335,6.984 0.006,6.655 0.006,6.249 L0.006,0.753 C0.006,0.347 0.335,0.018 0.742,0.018 L6.237,0.018 C6.644,0.018 6.973,0.347 6.973,0.753 L6.973,6.249 C6.973,6.655 6.644,6.984 6.237,6.984 Z" class="cls-1"/>
</svg>
